{"title":"Rz-9.2015.BRRip.x264-MenaceIISociety","uid":12239712,"size":957679812,"categoryP":"video","categoryS":"movies","magnet":"?xt=urn:btih:0f1163fb97b96c76dd4daed519e78f3d1e96aae9&amp;dn=Rz-9.2015.BRRip.x264-MenaceIISociety&amp;tr=udp%3A%2F%2Ftracker.openbittorrent.com%3A80&amp;tr=udp%3A%2F%2Fopen.demonii.com%3A1337&amp;tr=udp%3A%2F%2Ftracker.coppersurfer.tk%3A6969&amp;tr=udp%3A%2F%2Fexodus.desync.com%3A6969","seeders":7,"leechers":5,"uploader":"xxxlavalxxx","files":4,"time":1439743816,"description":" &lt;a href=&quot;http://extraimago.com/image/TNe&quot; rel=&quot;nofollow&quot; target=&quot;_NEW&quot;&gt;http://extraimago.com/image/TNe&lt;/a&gt;\n &lt;a href=&quot;\nhttp://www.imdb.com/title/tt3501492/&quot; rel=&quot;nofollow&quot; target=&quot;_NEW&quot;&gt;\nhttp://www.imdb.com/title/tt3501492/&lt;/a&gt;\n\n\nIn the midst of a terrorist-induced crisis the United States has declared martial law. Privatized defense forces and a state-of-the-art drone patrol system now monitor citizens and locate any new terrorist activities. Patterson Endcott, a computer scientist and drone pilot, is put on a hit list due to his religious beliefs and increasing doubt in the morality of his job. He and his sister, Samantha Endcott, are forced to find a place of safety beyond the watchful eyes of the surveillance drones. Considered a top level security threat by the government, the two are pursued by super soldiers, called Erasers, to capture them dead or alive. \n\nDirector: Iain Carson\nWriters: Iain Carson, David Rhoades\nStars: Ethan McDowell, Morgan Obenreder, Joshua Marble \nGenres: Action | Sci-Fi\nCountry: USA\nLanguage: English\n\n\nRz-9.2015.BRRip.x264-MenaceIISociety\n &lt;a href=&quot;\nhttp://www.imdb.com/title/tt3501492/&quot; rel=&quot;nofollow&quot; target=&quot;_NEW&quot;&gt;\nhttp://www.imdb.com/title/tt3501492/&lt;/a&gt;\nSource: DL.1080p.BluRay.x264-MONOBiLD [THANKS]\n\nGeneral\nComplete name: Rz-9.2015.BRRip.x264-MenaceIISociety.mp4\nFormat: MPEG-4\nFormat profile: Base Media\nCodec ID: isom\nFile size: 892 MiB\nDuration: 1h 32mn\nOverall bit rate mode: Variable\nOverall bit rate: 1 352 Kbps\nEncoded date: UTC 2015-08-14 22:09:51\nTagged date: UTC 2015-08-14 22:09:51\n\nVideo\nID: 1\nFormat: AVC\nFormat/Info: Advanced Video Codec\nFormat profile: &lt;a class=&quot;__cf_email__&quot; href=&quot;/cdn-cgi/l/email-protection&quot; data-cfemail=&quot;89c1e0eee1c9c5bda7b8&quot;&gt;[email&amp;#160;protected]&lt;/a&gt;&lt;script data-cfhash='f9e31' type=&quot;text/javascript&quot;&gt;\n/* &lt;![CDATA[ */!function(){try{var t=&quot;currentScript&quot;in document?document.currentScript:function(){for(var t=document.getElementsByTagName(&quot;script&quot;),e=t.length;e--;)if(t[e].getAttribute(&quot;data-cfhash&quot;))return t[e]}();if(t&amp;&amp;t.previousSibling){var e,r,n,i,c=t.previousSibling,a=c.getAttribute(&quot;data-cfemail&quot;);if(a){for(e=&quot;&quot;,r=parseInt(a.substr(0,2),16),n=2;a.length-n;n+=2)i=parseInt(a.substr(n,2),16)^r,e+=String.fromCharCode(i);e=document.createTextNode(e),c.parentNode.replaceChild(e,c)}t.parentNode.removeChild(t);}}catch(u){}}()/* ]]&gt; */&lt;/script&gt;\nFormat settings, CABAC: Yes\nFormat settings, ReFrames: 3 frames\nCodec ID: avc1\nCodec ID/Info: Advanced Video Coding\nDuration: 1h 32mn\nBit rate mode: Variable\nBit rate: 1 013 Kbps\nMaximum bit rate: 40.0 Mbps\nWidth: 720 pixels\nHeight: 304 pixels\nDisplay aspect ratio: 2.35:1\nFrame rate mode: Constant\nFrame rate: 23.976 fps\nColor space: YUV\nChroma subsampling: 4:2:0\nBit depth: 8 bits\nScan type: Progressive\nBits/(Pixel*Frame): 0.193\nStream size: 669 MiB (75%)\nWriting library: x264 core 148 r2579 73ae2d1\n\nAudio\nID: 2\nFormat: AAC\nFormat/Info: Advanced Audio Codec\nFormat profile: LC\nCodec ID: 40\nDuration: 1h 32mn\nBit rate mode: Variable\nBit rate: 334 Kbps\nMaximum bit rate: 388 Kbps\nChannel(s): 6 channels\nChannel positions: Front: L C R, Side: L R, LFE\nSampling rate: 48.0 KHz\nCompression mode: Lossy\nStream size: 221 MiB (25%)\nLanguage: English\nEncoded date: UTC 2015-08-14 20:41:53\nTagged date: UTC 2015-08-14 22:10:48 \n\n &lt;a href=&quot;\nhttp://extraimago.com/image/ywp&quot; rel=&quot;nofollow&quot; target=&quot;_NEW&quot;&gt;\nhttp://extraimago.com/image/ywp&lt;/a&gt; &lt;a href=&quot;\nhttp://extraimago.com/image/ywr&quot; rel=&quot;nofollow&quot; target=&quot;_NEW&quot;&gt;\nhttp://extraimago.com/image/ywr&lt;/a&gt; &lt;a href=&quot;\nhttp://extraimago.com/image/ywG&quot; rel=&quot;nofollow&quot; target=&quot;_NEW&quot;&gt;\nhttp://extraimago.com/image/ywG&lt;/a&gt; &lt;a href=&quot;\nhttp://extraimago.com/image/ywP&quot; rel=&quot;nofollow&quot; target=&quot;_NEW&quot;&gt;\nhttp://extraimago.com/image/ywP&lt;/a&gt;","torrent":{"xt":"urn:btih:0f1163fb97b96c76dd4daed519e78f3d1e96aae9","amp;dn":"Rz-9.2015.BRRip.x264-MenaceIISociety","amp;tr":["udp%3A%2F%2Ftracker.openbittorrent.com%3A80","udp%3A%2F%2Fopen.demonii.com%3A1337","udp%3A%2F%2Ftracker.coppersurfer.tk%3A6969","udp%3A%2F%2Fexodus.desync.com%3A6969"],"infoHash":"0f1163fb97b96c76dd4daed519e78f3d1e96aae9","infoHashBuffer":{"type":"Buffer","data":[15,17,99,251,151,185,108,118,221,77,174,213,25,231,143,61,30,150,170,233]},"announce":[],"urlList":[]}}